Coordinates
version=1
nRows=12
nColumns=24
inDegrees=yes

Units are S.I. units (second, meters, Newtons, ...)
Angles are in degrees.

endheader
time	pelvis_tilt	pelvis_list	pelvis_rotation	pelvis_tx	pelvis_ty	pelvis_tz	hip_flexion_r	hip_adduction_r	hip_rotation_r	knee_angle_r	ankle_angle_r	subtalar_angle_r	mtp_angle_r	hip_flexion_l	hip_adduction_l	hip_rotation_l	knee_angle_l	ankle_angle_l	subtalar_angle_l	mtp_angle_l	lumbar_extension	lumbar_bending	lumbar_rotation
      0.47900000	      1.51184122	      7.64158703	     -4.39243465	     -0.89732533	      0.98132734	      0.28480325	     23.32909028	     -6.99821573	     -0.68897987	      1.01708948	     -0.05369741	     -4.00313649	      6.69622950	    -21.54243288	     12.09970800	      7.47154149	      3.40731961	      9.17649737	    -12.44538211	     -2.09271016	    -13.95974519	     -0.37871813	     -8.17129239
      0.48316667	      1.46271794	      7.54542017	     -4.35976878	     -0.89176135	      0.98045716	      0.28526657	     23.30150639	     -6.85101826	     -0.28454273	      1.04028582	     -0.42920287	     -4.33632684	      6.72288496	    -21.66298025	     11.97766197	      7.45328122	      3.01650642	      9.45574889	    -12.29134894	     -2.07064252	    -13.92740629	     -0.26065363	     -8.04975247
      0.48733333	      1.40798456	      7.46251219	     -4.34966645	     -0.88621811	      0.97960946	      0.28574274	     23.34648807	     -6.71150316	      0.09941717	      0.86336899	     -0.74184475	     -4.54806995	      6.77247457	    -21.73637499	     11.88264397	      7.33452167	      2.54937603	      9.78849994	    -11.98844317	     -2.03072998	    -13.87669219	     -0.12614730	     -8.07488047
      0.49150000	      1.33287719	      7.35251036	     -4.32186516	     -0.88059182	      0.97881090	      0.28620252	     23.40610180	     -6.55081867	      0.45550569	      0.60862472	     -1.08439052	     -4.76448232	      6.82907490	    -21.77631522	     11.75392120	      7.22919760	      2.05088379	     10.08986412	    -11.71577488	     -1.97501099	    -13.80101220	      0.02551998	     -8.05703279
      0.49566667	      1.25110652	      7.22055250	     -4.29711660	     -0.87495612	      0.97805880	      0.28668820	     23.48001027	     -6.36364265	      0.82105128	      0.27219096	     -1.47190000	     -5.02660196	      6.88278134	    -21.79541920	     11.60310757	      7.14680262	      1.52524430	     10.38315072	    -11.48453237	     -1.91340713	    -13.72214351	      0.20762441	     -8.02807444
      0.49983333	      1.18748261	      7.07817189	     -4.28393456	     -0.86929221	      0.97737489	      0.28719960	     23.54471918	     -6.16285697	      1.19886682	     -0.14133606	     -1.90773084	     -5.35956976	      6.94901559	    -21.81038989	     11.44863484	      7.01084062	      0.94760961	     10.67672718	    -11.20375669	     -1.83192500	    -13.65271926	      0.41003994	     -7.99603077
      0.50400000	      1.09015898	      6.90605209	     -4.27171943	     -0.86355597	      0.97670122	      0.28772971	     23.65211065	     -5.92580790	      1.55500457	     -0.63367688	     -2.37322716	     -5.69272533	      7.00688309	    -21.78774299	     11.26314319	      6.89019183	      0.35789225	     10.94574864	    -10.96706141	     -1.74768161	    -13.55442145	      0.63524523	     -7.94160865
      0.50816667	      1.01063711	      6.73034286	     -4.26715912	     -0.85782286	      0.97609567	      0.28828317	     23.75625167	     -5.68204896	      1.90901674	     -1.19858541	     -2.86189829	     -6.07806419	      7.06721057	    -21.75656880	     11.07927585	      6.74110377	     -0.28335667	     11.19975006	    -10.71868946	     -1.64829574	    -13.47176651	      0.86858803	     -7.88625074
      0.51233333	      0.96513222	      6.53579438	     -4.27705325	     -0.85205914	      0.97558175	      0.28887443	     23.82639426	     -5.41589757	      2.25661302	     -1.80823116	     -3.36550455	     -6.49425299	      7.15859368	    -21.73023101	     10.88366625	      6.50712384	     -0.98497978	     11.46607785	    -10.39647938	     -1.47883994	    -13.43271509	      1.12138150	     -7.81317134
      0.51650000	      0.83871061	      6.33886438	     -4.28123253	     -0.84623337	      0.97500835	      0.28946707	     24.01528100	     -5.13781632	      2.54867540	     -2.52430341	     -3.87103542	     -6.87218157	      7.20641307	    -21.64126569	     10.68098577	      6.40887438	     -1.64294720	     11.62589045	    -10.25914195	     -1.36432903	    -13.28183332	      1.37960760	     -7.72961655
      0.52066667	      0.75171205	      6.12424040	     -4.29393098	     -0.84040489	      0.97452060	      0.29010103	     24.16068979	     -4.83937101	      2.84411658	     -3.26517112	     -4.39073317	     -7.33665995	      7.25839741	    -21.55463507	     10.46594289	      6.20211880	     -2.38818612	     11.81643297	    -10.01538007	     -1.21116907	    -13.18490636	      1.65595909	     -7.64110336
      0.52483333	      0.70524303	      5.87679196	     -4.32528740	     -0.83452065	      0.97413311	      0.29078172	     24.26128591	     -4.50433885	      3.11460407	     -4.03808490	     -4.86612230	     -7.77591156	      7.36121823	    -21.48927957	     10.22438244	      5.91480616	     -3.17673473	     12.02663247	     -9.67760501	     -0.86821889	    -13.13930343	      1.97250099	     -7.54172757
